<?xml version="1.0" encoding="UTF-8" standalone="no"?>
<svg
   xmlns:dc="http://purl.org/dc/elements/1.1/"
   xmlns:cc="http://creativecommons.org/ns#"
   xmlns:rdf="http://www.w3.org/1999/02/22-rdf-syntax-ns#"
   xmlns:svg="http://www.w3.org/2000/svg"
   xmlns="http://www.w3.org/2000/svg"
   xmlns:sodipodi="http://sodipodi.sourceforge.net/DTD/sodipodi-0.dtd"
   xmlns:inkscape="http://www.inkscape.org/namespaces/inkscape"
   width="200"
   height="200"
   viewBox="0 0 800 800"
   version="1.1"
   id="svg877"
   sodipodi:docname="background.svg"
   inkscape:version="1.0 (4035a4f, 2020-05-01)">
  <metadata
     id="metadata883">
    <rdf:RDF>
      <cc:Work
         rdf:about="">
        <dc:format>image/svg+xml</dc:format>
        <dc:type
           rdf:resource="http://purl.org/dc/dcmitype/StillImage" />
      </cc:Work>
    </rdf:RDF>
  </metadata>
  <defs
     id="defs881" />
  <sodipodi:namedview
     inkscape:document-rotation="0"
     pagecolor="#ffffff"
     bordercolor="#666666"
     borderopacity="1"
     objecttolerance="10"
     gridtolerance="10"
     guidetolerance="10"
     inkscape:pageopacity="0"
     inkscape:pageshadow="2"
     inkscape:window-width="1920"
     inkscape:window-height="971"
     id="namedview879"
     showgrid="false"
     inkscape:zoom="1.545"
     inkscape:cx="147.02523"
     inkscape:cy="159.5773"
     inkscape:window-x="0"
     inkscape:window-y="25"
     inkscape:window-maximized="1"
     inkscape:current-layer="svg877" />
  <g
     fill="none"
     stroke="#B3FFDC"
     stroke-width="1"
     id="g845"
     style="stroke:#fadc9e;stroke-opacity:1">
    <path
       d="M769 229L1037 260.9M927 880L731 737 520 660 309 538 40 599 295 764 126.5 879.5 40 599-197 493 102 382-31 229 126.5 79.5-69-63"
       id="path835"
       style="stroke:#fadc9e;stroke-opacity:1" />
    <path
       d="M-31 229L237 261 390 382 603 493 308.5 537.5 101.5 381.5M370 905L295 764"
       id="path837"
       style="stroke:#fadc9e;stroke-opacity:1" />
    <path
       d="M520 660L578 842 731 737 840 599 603 493 520 660 295 764 309 538 390 382 539 269 769 229 577.5 41.5 370 105 295 -36 126.5 79.5 237 261 102 382 40 599 -69 737 127 880"
       id="path839"
       style="stroke:#fadc9e;stroke-opacity:1" />
    <path
       d="M520-140L578.5 42.5 731-63M603 493L539 269 237 261 370 105M902 382L539 269M390 382L102 382"
       id="path841"
       style="stroke:#fadc9e;stroke-opacity:1" />
    <path
       d="M-222 42L126.5 79.5 370 105 539 269 577.5 41.5 927 80 769 229 902 382 603 493 731 737M295-36L577.5 41.5M578 842L295 764M40-201L127 80M102 382L-261 269"
       id="path843"
       style="stroke:#fadc9e;stroke-opacity:1" />
  </g>
  <g
     fill="#FEFCFF"
     id="g875"
     style="stroke:#f5bc47;stroke-opacity:1">
    <circle
       cx="769"
       cy="229"
       r="5"
       id="circle847"
       style="stroke:#f5bc47;stroke-opacity:1" />
    <circle
       cx="539"
       cy="269"
       r="5"
       id="circle849"
       style="stroke:#f5bc47;stroke-opacity:1" />
    <circle
       cx="603"
       cy="493"
       r="5"
       id="circle851"
       style="stroke:#f5bc47;stroke-opacity:1" />
    <circle
       cx="731"
       cy="737"
       r="5"
       id="circle853"
       style="stroke:#f5bc47;stroke-opacity:1" />
    <circle
       cx="520"
       cy="660"
       r="5"
       id="circle855"
       style="stroke:#f5bc47;stroke-opacity:1" />
    <circle
       cx="309"
       cy="538"
       r="5"
       id="circle857"
       style="stroke:#f5bc47;stroke-opacity:1" />
    <circle
       cx="295"
       cy="764"
       r="5"
       id="circle859"
       style="stroke:#f5bc47;stroke-opacity:1" />
    <circle
       cx="40"
       cy="599"
       r="5"
       id="circle861"
       style="stroke:#f5bc47;stroke-opacity:1" />
    <circle
       cx="102"
       cy="382"
       r="5"
       id="circle863"
       style="stroke:#f5bc47;stroke-opacity:1" />
    <circle
       cx="127"
       cy="80"
       r="5"
       id="circle865"
       style="stroke:#f5bc47;stroke-opacity:1" />
    <circle
       cx="370"
       cy="105"
       r="5"
       id="circle867"
       style="stroke:#f5bc47;stroke-opacity:1" />
    <circle
       cx="578"
       cy="42"
       r="5"
       id="circle869"
       style="stroke:#f5bc47;stroke-opacity:1" />
    <circle
       cx="237"
       cy="261"
       r="5"
       id="circle871"
       style="stroke:#f5bc47;stroke-opacity:1" />
    <circle
       cx="390"
       cy="382"
       r="5"
       id="circle873"
       style="stroke:#f5bc47;stroke-opacity:1" />
  </g>
</svg>
