<?xml version="1.0" encoding="UTF-8"?>
<svg id="Calque_1" data-name="Calque 1" xmlns="http://www.w3.org/2000/svg" viewBox="0 0 237.31 93.65">
  <defs>
    <style>
      .cls-1 {
        fill: #e30613;
      }

      .cls-2 {
        fill: #1d1d1b;
      }
    </style>
  </defs>
  <rect class="cls-1" y="4.98" width="30.53" height="26.14"/>
  <g>
    <path class="cls-2" d="M59.48,31.59c-7.65,0-12.08-5.45-12.08-13.63s4.73-13.46,12.3-13.46c5.81,0,9.96,3.32,11,9.16h-4.4c-.79-3.54-3.35-5.41-6.75-5.41-4.15,0-7.43,3.39-7.43,9.7s3.21,9.88,7.39,9.88c3.54,0,6.06-1.84,6.85-5.41h4.4c-1.08,5.84-5.27,9.16-11.29,9.16Z"/>
    <path class="cls-2" d="M83.29,28.02c2.24,0,4-.9,4.76-2.71h4.22c-.9,3.1-3.79,6.28-8.8,6.28-6.24,0-9.81-4.76-9.81-10.32,0-5.84,4-9.99,9.52-9.99,5.95,0,9.67,4.83,9.31,11.36h-14.46c.29,3.61,2.81,5.38,5.27,5.38Zm4.83-8.51c-.11-3.03-2.42-4.87-4.94-4.87-2.02,0-4.8,1.19-5.16,4.87h10.1Z"/>
    <path class="cls-2" d="M106.2,11.28c4.69,0,6.6,3.03,6.6,7.65v12.19h-4.29v-11.15c0-2.63-.4-5.19-3.68-5.19s-4.51,2.52-4.51,6.02v10.32h-4.29V11.71h4.29v2.71c1.12-2.02,3.17-3.14,5.88-3.14Z"/>
    <path class="cls-2" d="M122.18,6.59v5.12h3.9v3.1h-3.9v10.57c0,1.98,.47,2.45,2.31,2.45h1.55v3.28h-3.17c-4.15,0-4.98-1.12-4.98-5.09V14.81h-2.89v-3.1h2.89V6.59h4.29Z"/>
    <path class="cls-2" d="M137.88,28.02c2.24,0,4-.9,4.76-2.71h4.22c-.9,3.1-3.79,6.28-8.8,6.28-6.24,0-9.81-4.76-9.81-10.32,0-5.84,4-9.99,9.52-9.99,5.95,0,9.67,4.83,9.31,11.36h-14.46c.29,3.61,2.81,5.38,5.27,5.38Zm4.83-8.51c-.11-3.03-2.42-4.87-4.94-4.87-2.02,0-4.8,1.19-5.16,4.87h10.1Z"/>
    <path class="cls-2" d="M159.16,15.97c-2.71,0-4.26,1.08-4.26,4.98v10.17h-4.29V11.71h4.22v3.46c1.05-2.16,2.92-3.46,5.27-3.5,.32,0,.79,.04,1.12,.07v4.33c-.72-.07-1.41-.11-2.06-.11Z"/>
    <path class="cls-2" d="M55.22,42.97h1.7v3.28h-1.23c-2.13,0-2.6,.4-2.6,2.42v1.05h3.82v3.1h-3.82v16.3h-4.29v-16.3h-2.71v-3.1h2.71v-1.19c0-4.54,1.73-5.55,6.42-5.55Z"/>
    <path class="cls-2" d="M67.6,69.59c-4.73,0-9.56-3.14-9.56-10.14s4.83-10.17,9.56-10.17,9.56,3.17,9.56,10.17-4.83,10.14-9.56,10.14Zm5.12-10.14c0-4.47-2.42-6.67-5.12-6.67s-5.12,2.2-5.12,6.67,2.42,6.64,5.12,6.64,5.12-2.16,5.12-6.64Z"/>
    <path class="cls-2" d="M89.24,53.97c-2.71,0-4.26,1.08-4.26,4.98v10.17h-4.29v-19.41h4.22v3.46c1.05-2.16,2.92-3.46,5.27-3.5,.32,0,.79,.04,1.12,.07v4.33c-.72-.07-1.41-.11-2.06-.11Z"/>
    <path class="cls-2" d="M102.52,69.12v-26.15h4.58v26.15h-4.58Z"/>
    <path class="cls-2" d="M112.15,69.12v-19.41h4.29v2.71c1.12-2.02,3.03-3.14,5.63-3.14,2.99,0,4.76,1.26,5.66,3.43,1.66-2.45,3.93-3.43,6.31-3.43,4.58,0,6.35,3.03,6.35,7.65v12.19h-4.29v-11.15c0-2.63-.25-5.19-3.43-5.19s-4.26,2.52-4.26,6.02v10.32h-4.29v-11.15c0-2.63-.25-5.19-3.43-5.19s-4.26,2.52-4.26,6.02v10.32h-4.29Z"/>
    <path class="cls-2" d="M156.78,57v-.36c0-3.32-1.91-4.33-4.04-4.33s-3.79,1.15-3.9,3.5h-4.22c.29-3.97,3.57-6.67,8.26-6.67s8.3,2.13,8.19,8.33c0,.97-.07,3.25-.07,5.01,0,2.45,.22,5.01,.58,6.64h-3.93c-.14-.83-.29-1.3-.36-2.63-1.23,2.09-3.54,3.1-6.38,3.1-4.22,0-7.18-2.27-7.18-5.81,0-4.83,5.95-6.06,13.06-6.78Zm-8.51,6.67c0,1.7,1.41,2.71,3.57,2.71,3.17,0,5.05-1.62,5.05-4.91v-1.48c-6.13,.58-8.62,1.44-8.62,3.68Z"/>
    <path class="cls-2" d="M182.58,49.71v17.46c0,3.17-.79,5.41-2.34,6.85-1.55,1.44-3.86,2.09-6.89,2.09-4.26,0-7.65-1.7-8.3-5.95h4.26c.4,1.8,1.59,2.56,4.15,2.56,1.91,0,3.14-.54,3.86-1.41,.72-.83,.97-2.02,.97-3.28v-2.27c-1.15,1.91-3.17,3.03-5.77,3.03-4.58,0-8.44-3.72-8.44-9.78s3.86-9.74,8.44-9.74c2.6,0,4.62,1.12,5.77,3.03v-2.6h4.29Zm-14.03,9.31c0,3.97,2.06,6.38,4.91,6.38s5.01-2.02,5.01-6.38-2.2-6.31-5.01-6.31-4.91,2.42-4.91,6.31Z"/>
    <path class="cls-2" d="M191.67,47.29h-4.29v-4.33h4.29v4.33Zm0,21.82h-4.29v-19.41h4.29v19.41Z"/>
    <path class="cls-2" d="M206.68,49.28c4.69,0,6.6,3.03,6.6,7.65v12.19h-4.29v-11.15c0-2.63-.4-5.19-3.68-5.19s-4.51,2.52-4.51,6.02v10.32h-4.29v-19.41h4.29v2.71c1.12-2.02,3.17-3.14,5.88-3.14Z"/>
    <path class="cls-2" d="M234.93,49.71v17.46c0,3.17-.79,5.41-2.34,6.85s-3.86,2.09-6.89,2.09c-4.26,0-7.65-1.7-8.3-5.95h4.26c.4,1.8,1.59,2.56,4.15,2.56,1.91,0,3.14-.54,3.86-1.41,.72-.83,.97-2.02,.97-3.28v-2.27c-1.15,1.91-3.17,3.03-5.77,3.03-4.58,0-8.44-3.72-8.44-9.78s3.86-9.74,8.44-9.74c2.6,0,4.62,1.12,5.77,3.03v-2.6h4.29Zm-14.03,9.31c0,3.97,2.06,6.38,4.91,6.38s5.01-2.02,5.01-6.38-2.2-6.31-5.01-6.31-4.91,2.42-4.91,6.31Z"/>
  </g>
</svg>