<?xml version="1.0" encoding="utf-8"?>
<!-- Generator: Adobe Illustrator 23.1.1, SVG Export Plug-In . SVG Version: 6.00 Build 0)  -->
<svg version="1.1" id="Ebene_1" xmlns="http://www.w3.org/2000/svg" xmlns:xlink="http://www.w3.org/1999/xlink" x="0px" y="0px"
	 viewBox="0 0 234.1 56.7" style="enable-background:new 0 0 234.1 56.7;" xml:space="preserve">
<g>
	<g>
		<polygon points="33.6,51.4 24.5,56.7 17.4,52.6 17.4,48.6 24.5,52.6 30.1,49.4 33.6,51.4 		"/>
		<polygon points="40.2,9 49.1,14.1 49.1,22.3 45.6,24.3 45.6,16.2 40.2,13.1 40.2,9 		"/>
		<polygon points="49.1,32 49.1,42.5 42,46.5 38.6,44.6 45.6,40.5 45.6,34 49.1,32 		"/>
		<polygon points="15.4,5.3 24.5,0 31.6,4.1 31.6,8.1 24.6,4.1 18.9,7.3 15.4,5.3 		"/>
		<polygon points="0,24.6 0,14.1 7.1,10 10.6,12 3.6,16.1 3.6,22.6 0,24.6 		"/>
		<polygon points="9.1,47.8 0,42.5 0,34.3 3.4,32.3 3.4,40.4 9.1,43.6 9.1,47.8 		"/>
	</g>
</g>
<g>
	<path d="M66.6,38V18.8h13.1V23h-8.3v3.2h7.1v4.2h-7.1v3.4h8.3V38H66.6z"/>
	<path d="M94.8,23v15H90V23h-4.7v-4.2h14.2V23H94.8z"/>
	<path d="M115.5,38v-7.6h-5V38h-4.7V18.8h4.7v7.4h5v-7.4h4.7V38H115.5z"/>
	<path d="M144.8,38h-8.4V18.8h8c4,0,6.1,2.2,6.1,5.6c0,2.2-1.5,3.4-2.1,3.8c0.8,0.5,2.4,1.5,2.4,4.2C150.7,36,148.2,38,144.8,38z
		 M144.1,23.1h-2.9v3.1h2.9c1.3,0,1.7-0.8,1.7-1.6C145.8,23.9,145.4,23.1,144.1,23.1z M144.3,30.4h-3.2v3.4h3.2
		c1.3,0,1.7-0.9,1.7-1.7C146,31.3,145.6,30.4,144.3,30.4z"/>
	<path d="M169.5,36.1c-1.4,1.4-3,2.1-5.3,2.1c-2.3,0-4-0.7-5.3-2.1c-2-2-2-4.4-2-7.7c0-3.2,0-5.7,2-7.7c1.4-1.4,3-2.1,5.3-2.1
		c2.3,0,4,0.7,5.3,2.1c2,2,2,4.4,2,7.7C171.5,31.7,171.5,34.1,169.5,36.1z M166.1,23.7c-0.4-0.5-1-0.8-1.9-0.8s-1.5,0.4-1.9,0.8
		c-0.4,0.6-0.7,1.2-0.7,4.7c0,3.5,0.3,4.1,0.7,4.7c0.4,0.5,1,0.9,1.9,0.9s1.5-0.4,1.9-0.9c0.4-0.6,0.7-1.2,0.7-4.7
		C166.8,24.9,166.5,24.3,166.1,23.7z"/>
	<path d="M188.3,38l-0.9-2.9h-5.9l-0.9,2.9h-4.9l7-19.2h3.6l7,19.2H188.3z M184.6,26.1l-1.7,5.1h3.3L184.6,26.1z"/>
	<path d="M208.4,38l-3.4-7.1h-1.6V38h-4.7V18.8h7.6c4.3,0,6.6,3,6.6,6.2c0,2.6-1.6,4.3-3.1,5l4.2,8H208.4z M206.1,23.1h-2.7v3.9h2.7
		c1.3,0,2-0.9,2-1.9C208.2,24,207.4,23.1,206.1,23.1z"/>
	<path d="M233.1,34.8c-1.3,2.1-3.3,3.2-6.2,3.2h-7.1V18.8h7.1c2.9,0,4.9,1.1,6.2,3.2c0.9,1.5,0.9,3,0.9,6.4
		C234.1,31.7,234.1,33.3,233.1,34.8z M228.9,24.1c-0.4-0.6-1.1-1.1-2.3-1.1h-2.1v10.8h2.1c1.2,0,1.8-0.4,2.3-1.1
		c0.4-0.5,0.5-1.1,0.5-4.3C229.4,25.2,229.2,24.7,228.9,24.1z"/>
</g>
</svg>
